/* XPM */
static char *Queen1647877834[] = {
/* columns rows colors chars-per-pixel */
"64 64 3 1 ",
"  c None",
". c black",
"X c white",
/* pixels */
"                              ....                              ",
"                            ........                            ",
"                          ....X.......                          ",
"                          ...X........                          ",
"                          ...X........                          ",
"                          ...X........                          ",
"                           ...X......                           ",
"                           ..........                           ",
"                              ....                              ",
"                               ..                               ",
"                      ....     ..     ....                      ",
"                      ....    ....    ....                      ",
"                      ......  ....  ......                      ",
"                       ..................                       ",
"                         ..............                         ",
"                         ..............                         ",
"                         ..............                         ",
"                          ..XX........                          ",
"                          ...XX.......                          ",
"                          ...XX.......                          ",
"                       ......XX..........                       ",
"                       .......X..........                       ",
"                         ..............                         ",
"                         ..............                         ",
"                          ............                          ",
"                          ..XX........                          ",
"                          ..XX........                          ",
"                          ...X........                          ",
"                         ..............                         ",
"                         ..............                         ",
"                         ..............                         ",
"                         ..............                         ",
"                        ................                        ",
"                        ................                        ",
"                        ....X...........                        ",
"                        ....X...........                        ",
"                       ....XX............                       ",
"                       ....XX............                       ",
"                       ...XXX............                       ",
"                       ...XXX............                       ",
"                      ...XXXX.............                      ",
"                      ...XXXX.............                      ",
"                      ..XXXXX.............                      ",
"                      ..XXXXX.............                      ",
"                   .....XXXX.................                   ",
"                   ....XXXXX.................                   ",
"                   ....XXXXX.................                   ",
"                   ...XXXXXX.................                   ",
"                ......XXXXX.....................                ",
"                .....XXXXX......................                ",
"                .....XXXX.......................                ",
"               .....XXXX.........................               ",
"             ......XXXX............................             ",
"             ......................................             ",
"             ...XXXXXXXXX..........................             ",
"             .....XXXXX............................             ",
"          ......XXXXX.................................          ",
"          .....XXXX...................................          ",
"          ............................................          ",
"          ............................................          ",
"                                                                ",
"                                                                ",
"                                                                ",
"                                                                "
};
