/* XPM */
static char *Wall1647877834[] = {
/* columns rows colors chars-per-pixel */
"64 64 3 1 ",
"  c black",
". c #9000FF",
"X c white",
/* pixels */
"                                                                ",
"                                                                ",
"                                                                ",
"                                                                ",
"    ....XXXX....XXXX....XXXX....XXXX....XXXX....XXXX....XXXX    ",
"    ....XXXX....XXXX....XXXX....XXXX....XXXX....XXXX....XXXX    ",
"    ....XXXX....XXXX....XXXX....XXXX....XXXX....XXXX....XXXX    ",
"    ....XXXX....XXXX....XXXX....XXXX....XXXX....XXXX....XXXX    ",
"    XXXX....XXXX....XXXX....XXXX....XXXX....XXXX....XXXX....    ",
"    XXXX....XXXX....XXXX....XXXX....XXXX....XXXX....XXXX....    ",
"    XXXX....XXXX....XXXX....XXXX....XXXX....XXXX....XXXX....    ",
"    XXXX....XXXX....XXXX....XXXX....XXXX....XXXX....XXXX....    ",
"    ....XXXX....XXXX....XXXX....XXXX....XXXX....XXXX....XXXX    ",
"    ....XXXX....XXXX....XXXX....XXXX....XXXX....XXXX....XXXX    ",
"    ....XXXX....XXXX....XXXX....XXXX....XXXX....XXXX....XXXX    ",
"    ....XXXX....XXXX....XXXX....XXXX....XXXX....XXXX....XXXX    ",
"    XXXX....XXXX....XXXX....XXXX....XXXX....XXXX....XXXX....    ",
"    XXXX....XXXX....XXXX....XXXX....XXXX....XXXX....XXXX....    ",
"    XXXX....XXXX....XXXX....XXXX....XXXX....XXXX....XXXX....    ",
"    XXXX....XXXX....XXXX....XXXX....XXXX....XXXX....XXXX....    ",
"    ....XXXX....XXXX....XXXX....XXXX....XXXX....XXXX....XXXX    ",
"    ....XXXX....XXXX....XXXX....XXXX....XXXX....XXXX....XXXX    ",
"    ....XXXX....XXXX....XXXX....XXXX....XXXX....XXXX....XXXX    ",
"    ....XXXX....XXXX....XXXX....XXXX....XXXX....XXXX....XXXX    ",
"    XXXX....XXXX....XXXX....XXXX....XXXX....XXXX....XXXX....    ",
"    XXXX....XXXX....XXXX....XXXX....XXXX....XXXX....XXXX....    ",
"    XXXX....XXXX....XXXX....XXXX....XXXX....XXXX....XXXX....    ",
"    XXXX....XXXX....XXXX....XXXX....XXXX....XXXX....XXXX....    ",
"    ....XXXX....XXXX....XXXX....XXXX....XXXX....XXXX....XXXX    ",
"    ....XXXX....XXXX....XXXX....XXXX....XXXX....XXXX....XXXX    ",
"    ....XXXX....XXXX....XXXX....XXXX....XXXX....XXXX....XXXX    ",
"    ....XXXX....XXXX....XXXX....XXXX....XXXX....XXXX....XXXX    ",
"    XXXX....XXXX....XXXX....XXXX....XXXX....XXXX....XXXX....    ",
"    XXXX....XXXX....XXXX....XXXX....XXXX....XXXX....XXXX....    ",
"    XXXX....XXXX....XXXX....XXXX....XXXX....XXXX....XXXX....    ",
"    XXXX....XXXX....XXXX....XXXX....XXXX....XXXX....XXXX....    ",
"    ....XXXX....XXXX....XXXX....XXXX....XXXX....XXXX....XXXX    ",
"    ....XXXX....XXXX....XXXX....XXXX....XXXX....XXXX....XXXX    ",
"    ....XXXX....XXXX....XXXX....XXXX....XXXX....XXXX....XXXX    ",
"    ....XXXX....XXXX....XXXX....XXXX....XXXX....XXXX....XXXX    ",
"    XXXX....XXXX....XXXX....XXXX....XXXX....XXXX....XXXX....    ",
"    XXXX....XXXX....XXXX....XXXX....XXXX....XXXX....XXXX....    ",
"    XXXX....XXXX....XXXX....XXXX....XXXX....XXXX....XXXX....    ",
"    XXXX....XXXX....XXXX....XXXX....XXXX....XXXX....XXXX....    ",
"    ....XXXX....XXXX....XXXX....XXXX....XXXX....XXXX....XXXX    ",
"    ....XXXX....XXXX....XXXX....XXXX....XXXX....XXXX....XXXX    ",
"    ....XXXX....XXXX....XXXX....XXXX....XXXX....XXXX....XXXX    ",
"    ....XXXX....XXXX....XXXX....XXXX....XXXX....XXXX....XXXX    ",
"    XXXX....XXXX....XXXX....XXXX....XXXX....XXXX....XXXX....    ",
"    XXXX....XXXX....XXXX....XXXX....XXXX....XXXX....XXXX....    ",
"    XXXX....XXXX....XXXX....XXXX....XXXX....XXXX....XXXX....    ",
"    XXXX....XXXX....XXXX....XXXX....XXXX....XXXX....XXXX....    ",
"    ....XXXX....XXXX....XXXX....XXXX....XXXX....XXXX....XXXX    ",
"    ....XXXX....XXXX....XXXX....XXXX....XXXX....XXXX....XXXX    ",
"    ....XXXX....XXXX....XXXX....XXXX....XXXX....XXXX....XXXX    ",
"    ....XXXX....XXXX....XXXX....XXXX....XXXX....XXXX....XXXX    ",
"    XXXX....XXXX....XXXX....XXXX....XXXX....XXXX....XXXX....    ",
"    XXXX....XXXX....XXXX....XXXX....XXXX....XXXX....XXXX....    ",
"    XXXX....XXXX....XXXX....XXXX....XXXX....XXXX....XXXX....    ",
"    XXXX....XXXX....XXXX....XXXX....XXXX....XXXX....XXXX....    ",
"                                                                ",
"                                                                ",
"                                                                ",
"                                                                "
};
