/* XPM */
static char *Collectible1647877834[] = {
/* columns rows colors chars-per-pixel */
"64 64 3 1 ",
"  c None",
". c black",
"X c white",
/* pixels */
"                                                                ",
"                                                                ",
"                                                                ",
"                                                                ",
"                                                                ",
"                                                                ",
"                                                                ",
"                                                                ",
"                    ........................                    ",
"                    ........................                    ",
"                    ........................                    ",
"                    ....X...................                    ",
"                      ...X................                      ",
"                      ...XX...............                      ",
"                      ....XX..............                      ",
"                      .....X..............                      ",
"                        ...XX...........                        ",
"                        ....X...........                        ",
"                        ....X...........                        ",
"                        ....XX..........                        ",
"        ....              ...X........              ....        ",
"        ....              ...X........              ....        ",
"        ........          ....X.......          ........        ",
"        ........          ....XX......          ........        ",
"        ............        ...X....        ............        ",
"        ............        ...X....        ............        ",
"        ................    ........    ................        ",
"        ................    ........    ................        ",
"        ....................  ....  ....................        ",
"        .................X..  ....  ....................        ",
"        .................X..............................        ",
"        .................XX...X.........................        ",
"        ..................X.............................        ",
"        ..................X.............................        ",
"        ....................  ....  ....................        ",
"        ....................  ....  ....................        ",
"        ................    ........    ................        ",
"        ................    ........    ................        ",
"        ............        ..X.....        ............        ",
"        ............        ..X.....        ............        ",
"        ........          ....X.......          ........        ",
"        ........          ...XX.......          ........        ",
"        ....              ...X........              ....        ",
"        ....              ...X........              ....        ",
"                        ....X...........                        ",
"                        ...XX...........                        ",
"                        ...X............                        ",
"                        ..XX............                        ",
"                      ....X...............                      ",
"                      ...XX...............                      ",
"                      ...X................                      ",
"                      ..XX................                      ",
"                    ...XX...................                    ",
"                    ...X....................                    ",
"                    ........................                    ",
"                    ........................                    ",
"                                                                ",
"                                                                ",
"                                                                ",
"                                                                ",
"                                                                ",
"                                                                ",
"                                                                ",
"                                                                "
};
