/* XPM */
static char *King1647877834[] = {
/* columns rows colors chars-per-pixel */
"64 64 3 1 ",
"  c None",
". c black",
"X c white",
/* pixels */
"                                                                ",
"                                                                ",
"                                                                ",
"                                                                ",
"                                                                ",
"                                                                ",
"            ........................................            ",
"            ........................................            ",
"            ........................................            ",
"            ........................................            ",
"                .....XXX........................                ",
"                ......XXX.......................                ",
"                ......XXX.......................                ",
"                .......XX.......................                ",
"                  .....XXX....................                  ",
"                  ............................                  ",
"                  .....XXX....................                  ",
"                  .....XXX....................                  ",
"                .......XXX......................                ",
"                .......XXX......................                ",
"                .......XXX......................                ",
"                .......XXX......................                ",
"            ........................................            ",
"            ...........XXX..........................            ",
"            ...........XX...........................            ",
"            ...........XX...........................            ",
"                ......XXX.......................                ",
"                .....XXX........................                ",
"                ................................                ",
"                ................................                ",
"                    ........................                    ",
"                    ........................                    ",
"                    ........................                    ",
"                    ........................                    ",
"                    ........................                    ",
"                    ....X...................                    ",
"                    ....X...................                    ",
"                    ....X...................                    ",
"                   .....X....................                   ",
"                   ....XX....................                   ",
"                   ....XX....................                   ",
"                   ....XX....................                   ",
"                 ......XX......................                 ",
"                 .....XXX......................                 ",
"                 .....XXX......................                 ",
"                 .....XXX......................                 ",
"               ......XXX.........................               ",
"               ......XXX.........................               ",
"               .....XXX..........................               ",
"               .....XXX..........................               ",
"             .......XX.............................             ",
"             ......XXX.............................             ",
"             ......XXX.............................             ",
"             .....XXX..............................             ",
"          ......XXXXX.................................          ",
"          ............................................          ",
"          ............................................          ",
"          ...XXXXXXX..................................          ",
"       ......XXXXX.......................................       ",
"       ..................................................       ",
"       ..................................................       ",
"       ..................................................       ",
"                                                                ",
"                                                                "
};
